<?xml version="1.0" encoding="utf-8"?>
<!-- Generator: Adobe Illustrator 23.0.3, SVG Export Plug-In . SVG Version: 6.00 Build 0)  -->
<svg version="1.1" xmlns="http://www.w3.org/2000/svg" xmlns:xlink="http://www.w3.org/1999/xlink" x="0px" y="0px"
	 viewBox="0 0 512 512" style="enable-background:new 0 0 512 512;" xml:space="preserve">
<g>
	<path class="st1" d="M129.95,317.13c-0.56-1.13-1.56-1.39-2.36-1.86c-5.26-3.07-10.57-6.06-15.81-9.16
		c-5.54-3.29-7.38-9.56-4.45-14.8c2.98-5.35,9.46-7.11,15.15-3.86c16.26,9.28,32.47,18.63,48.65,28.04c2.38,1.38,4.74,2.05,7.5,2.04
		c37-0.05,73.99-0.04,110.99-0.02c1.94,0,3.9,0.04,5.8,0.38c5.21,0.93,9.01,5.95,8.61,11.14c-0.41,5.35-4.65,9.66-9.91,10.04
		c-0.79,0.06-1.59,0.05-2.38,0.05c-71.87,0-143.75,0-215.62,0c-6.64,0-10.78-2.94-12.05-8.47c-1.35-5.87,2.57-11.82,8.52-12.79
		c1.82-0.3,3.69-0.35,5.54-0.35c16.16-0.03,32.32-0.01,48.47-0.03C127.65,317.48,128.72,317.68,129.95,317.13z"/>
	<path class="st1" d="M103.17,275.89c-19.42,0-38.84,0.01-58.27-0.01c-1.58,0-3.19-0.05-4.75-0.29c-5.5-0.87-9.41-5.6-9.15-10.95
		c0.28-5.7,4.68-10.09,10.41-10.35c1.15-0.05,2.29-0.03,3.44-0.03c19.69,0,39.37-0.04,59.06,0.04c2.42,0.01,3.87-0.74,5.04-2.89
		c3-5.5,6.14-10.93,9.41-16.28c2.44-4,6.91-5.82,11.15-4.9c4.63,1,7.79,4.29,8.61,8.96c0.45,2.56-0.19,4.91-1.4,7.13
		c-1.06,1.94-2.18,3.84-3.28,5.75c-0.83,1.45-0.37,2.15,1.26,2.17c0.79,0.01,1.59,0.02,2.38,0.02c9,0,18.01-0.03,27.01,0.02
		c6.64,0.04,11.22,4.26,11.4,10.35c0.18,6.18-4.06,10.65-10.62,11.2c-1.14,0.09-2.29,0.07-3.44,0.07
		C142.02,275.89,122.6,275.89,103.17,275.89z"/>
	<path class="st1" d="M85.68,177.51c-11.02,0-22.05,0.11-33.07-0.03c-7.54-0.1-12.45-7.26-10.02-14.22c1.48-4.23,5.15-6.99,9.86-7.1
		c5.73-0.13,11.46-0.06,17.2-0.06c15.96-0.01,31.93,0.01,47.89-0.02c3.08-0.01,5.97,0.42,8.42,2.5c3.33,2.84,4.63,7.59,3.18,11.77
		c-1.46,4.2-5.24,7.09-9.84,7.13C108.08,177.57,96.88,177.51,85.68,177.51z"/>
	<path class="st1" d="M215.18,254.26c3.61,0,7.23-0.07,10.84,0.02c5.88,0.14,10.44,4.57,10.73,10.29
		c0.28,5.54-3.77,10.56-9.61,11.03c-7.99,0.66-16.04,0.64-24.04,0.01c-5.96-0.47-9.94-5.48-9.63-11.24
		c0.3-5.73,4.83-9.99,10.86-10.11C207.95,254.2,211.57,254.26,215.18,254.26z"/>
	<path class="st1" d="M467.51,210.71c-76.3-44.07-152.63-88.11-228.94-132.17c-1.92-1.11-3.88-2.11-5.99-2.79
		c-11.44-3.71-22.93,1.05-29.43,12.3c-19.79,34.25-39.55,68.51-59.25,102.82c-1.26,2.19-2.65,3.09-5.2,3.07
		c-13.6-0.12-27.2-0.06-40.79-0.05c-3,0-6.01-0.1-9.01,0.06c-5.89,0.31-10.27,4.71-10.44,10.3c-0.17,5.91,3.75,10.47,9.75,11.21
		c1.31,0.16,2.64,0.12,3.97,0.12c26.05,0.01,52.1,0,78.15,0c26.23,0,52.45,0,78.68,0c1.68,0,3.35,0.01,5-0.42
		c4.83-1.25,8.2-5.51,8.23-10.45c0.02-4.86-3.4-9.16-8.25-10.42c-1.65-0.43-3.32-0.4-5-0.4c-26.14,0-52.27,0-78.41-0.01
		c-3.45,0-3.5-0.09-1.76-3.11c10.29-17.81,20.61-35.61,30.84-53.46c1.2-2.1,2.13-2.69,4.46-1.34
		c76.81,44.43,153.66,88.79,230.51,133.16c3.14,1.81,3.15,1.83,1.32,4.99c-25.88,44.8-51.76,89.61-77.65,134.4
		c-4.55,7.86-9.97,9.27-17.9,4.7c-26.84-15.49-53.68-30.99-80.52-46.48c-8.79-5.07-17.56-10.21-26.42-15.17
		c-5.87-3.29-12.65-1.2-15.36,4.49c-2.54,5.34-0.53,11.16,5.11,14.42c35.85,20.73,71.67,41.5,107.58,62.12
		c16.92,9.71,35.9,4.55,45.68-12.35c33.56-58.01,67.06-116.05,100.53-174.1C484.79,232.6,481,218.51,467.51,210.71z M458.79,234.4
		c-3.05,5.37-6.18,10.7-9.22,16.08c-1.1,1.95-2.28,0.99-3.51,0.28c-12.46-7.19-24.93-14.39-37.39-21.58
		c-64.31-37.13-128.61-74.26-192.91-111.4c-3.59-2.08-3.59-2.09-1.48-5.76c2.56-4.44,5.13-8.87,7.7-13.3
		c0.73-1.25,1.52-2.42,3.22-2.38c1.5,0.02,2.65,0.91,3.86,1.61c28.07,16.19,56.13,32.39,84.2,48.59
		c46.95,27.1,93.9,54.21,140.85,81.31c1.15,0.66,2.29,1.33,3.42,2.03C459.28,231,459.85,232.52,458.79,234.4z"/>
	<path class="st1" d="M247.9,128.76c-3.99,0.04-7.13-3.05-7.08-6.97c0.05-3.84,3.08-6.85,6.93-6.87c3.98-0.03,7.14,3.07,7.1,6.98
		C254.81,125.71,251.75,128.72,247.9,128.76z"/>
	<path class="st1" d="M266.32,139.38c-3.97,0.03-7.14-3.08-7.09-6.97c0.05-3.79,3.14-6.85,6.95-6.87c3.97-0.02,7.12,3.1,7.07,7
		C273.21,136.39,270.2,139.35,266.32,139.38z"/>
	<path class="st1" d="M236.35,111.3c-0.04,3.92-3.18,6.93-7.17,6.86c-3.84-0.07-6.72-3.08-6.7-7c0.03-3.91,2.96-6.84,6.84-6.85
		C233.3,104.3,236.38,107.37,236.35,111.3z"/>
</g>
</svg>
