<?xml version="1.0" encoding="utf-8"?>
<!-- Generator: Adobe Illustrator 23.0.3, SVG Export Plug-In . SVG Version: 6.00 Build 0)  -->
<svg version="1.1" xmlns="http://www.w3.org/2000/svg" xmlns:xlink="http://www.w3.org/1999/xlink" x="0px" y="0px"
	 viewBox="0 0 512 512" style="enable-background:new 0 0 512 512;" xml:space="preserve">
<g>
	<path class="st1" d="M213.34,283.3c1.1-5.83-0.22-6.73-5.7-6.7c-40.4,0.22-80.8,0.07-121.2,0.18c-4.16,0.01-6.32-0.52-6.3-5.57
		c0.17-50.5,0.14-101,0.04-151.5c-0.01-3.98,1.17-5.3,5.25-5.29c84.1,0.1,168.19,0.11,252.29-0.02c4.54-0.01,5.44,1.62,5.39,5.74
		c-0.2,16.28,0.13,32.57-0.2,48.85c-0.11,5.51,0.74,8.52,7.15,7.94c3.41-0.31,7.12,0.17,10.39,1.23c6.49,2.11,6.94-1.01,6.88-6.24
		c-0.22-19.78-0.06-39.57-0.1-59.36c-0.03-15.85-6.27-22.09-22.12-22.09c-44.52-0.02-89.04-0.01-133.56-0.01
		c-43.9,0-87.81-0.01-131.71,0c-18.1,0-23.79,5.62-23.79,23.49c0,52.97,0,105.94,0,158.92c0,3.5-0.12,7.01,0.06,10.51
		c0.5,9.64,7.39,16.57,16.97,17.1c2.88,0.16,5.77,0.06,8.66,0.06c36.07,0,72.14,0.09,108.21-0.1c4.91-0.03,6.41,1.4,6.18,6.26
		c-0.38,8.02-0.1,16.07-0.1,24.11c0,12.68-6.3,19.66-19.2,20.6c-6.77,0.49-13.6,0.14-20.4,0.26c-8.7,0.15-17.31,0.91-25.37,4.57
		c-4.69,2.13-8.46,5.2-9.32,10.69c-0.72,4.59,0.97,8.23,5.8,8.42c12.72,0.49,25.97,3.04,38-1.78c17.57-7.03,35.53-8.44,53.97-7.56
		c4.95,0.24,6.02-0.55,3.69-5.53C211.7,335.85,208.3,310,213.34,283.3z"/>
	<path class="st1" d="M424.01,221.72c-22.45-22.25-52.34-34.42-84.17-34.35c-65.18,0.2-118.08,53.51-117.91,118.84
		c0.08,31.72,12.49,61.48,34.94,83.81c22.4,22.27,52.15,34.53,83.81,34.53c0.08,0,0.16,0,0.24,0c31.62-0.06,61.29-12.42,83.55-34.8
		c22.37-22.49,34.63-52.44,34.52-84.32C458.89,273.69,446.47,243.96,424.01,221.72z M437.66,306.35
		c-0.18,53.31-43.72,96.64-97.09,96.64c-0.03,0-0.06,0-0.09,0c-26.02-0.02-50.42-10.14-68.7-28.48
		c-18.3-18.36-28.35-42.83-28.29-68.9c0.12-53.28,43.66-96.6,97.07-96.6c0.02,0,0.04,0,0.05,0c26.03,0.01,50.47,10.16,68.8,28.56
		C427.71,255.94,437.75,280.37,437.66,306.35z"/>
	<path class="st1" d="M307.64,292.94c-3.94-3.9-7.86-10.46-12.1-10.72c-4.94-0.3-8.16,7.22-12.61,10.81
		c-2.97,2.4-2.89,4.13-0.08,6.8c7.76,7.38,15.08,15.24,22.87,22.58c3.23,3.05,3.02,4.94-0.12,7.8c-5.17,4.71-9.97,9.84-14.92,14.79
		c-11.81,11.81-11.73,11.73,0.51,23.41c2.55,2.43,3.97,2.41,6.39-0.05c13.15-13.36,26.47-26.56,39.72-39.83
		c0.86-0.86,1.58-1.85,2.52-2.98c-1.18-1.34-2.18-2.61-3.32-3.76C326.89,312.15,317.3,302.51,307.64,292.94z"/>
	<path class="st1" d="M397.9,312.03c-7.02-6.64-13.73-13.61-20.56-20.45c-6.29-6.29-6.29-6.29-0.22-12.36
		c4.07-4.07,8.24-8.05,12.19-12.25c3.63-3.86,10.51-7.19,10.07-11.62c-0.42-4.19-6.63-7.81-10.33-11.65
		c-1.12-1.17-2.37-2.21-3.41-3.18c-2.02-0.04-2.75,1.39-3.72,2.36c-12.83,12.77-25.54,25.66-38.48,38.32
		c-2.75,2.68-2.67,4.16,0.04,6.8c10.63,10.31,20.95,20.94,31.51,31.32c3.63,3.56,6.8,10.02,11.12,9.81
		c4.65-0.23,7.62-6.85,11.69-10.26C400.68,316.46,400.73,314.7,397.9,312.03z"/>
</g>
</svg>
